<svg xmlns="http://www.w3.org/2000/svg" width="1024" height="1024" viewBox="0 0 1024 1024">
    <g transform="translate(204.8 204.8) scale(0.6)">
      <defs><linearGradient id="pinGradflat554210" x1="0" y1="0" x2="0" y2="1">
        <stop offset="0" stop-color="#FFFFFF"/><stop offset="1" stop-color="#FFFFFF"/>
      </linearGradient></defs>
      <path d="M 554 385.5
               C 535.1 345.9 474.8 282.0 465.8 229.8
               A 90 90 0 1 1 642.2 229.8
               C 633.2 282.0 572.9 345.9 554 385.5 Z"
            fill="url(#pinGradflat554210)"/>
      <defs><linearGradient id="pinGradflat340352" x1="0" y1="0" x2="0" y2="1">
        <stop offset="0" stop-color="#FFFFFF"/><stop offset="1" stop-color="#FFFFFF"/>
      </linearGradient></defs>
      <path d="M 340 515.8
               C 322.36 478.84000000000003 266.08 419.2 257.68 370.48
               A 84 84 0 1 1 422.32 370.48
               C 413.92 419.2 357.64 478.84000000000003 340 515.8 Z"
            fill="url(#pinGradflat340352)"/>
      <defs><linearGradient id="pinGradflat800356" x1="0" y1="0" x2="0" y2="1">
        <stop offset="0" stop-color="#FFFFFF"/><stop offset="1" stop-color="#FFFFFF"/>
      </linearGradient></defs>
      <path d="M 800 519.8
               C 782.36 482.84000000000003 726.08 423.2 717.6800000000001 374.48
               A 84 84 0 1 1 882.3199999999999 374.48
               C 873.92 423.2 817.64 482.84000000000003 800 519.8 Z"
            fill="url(#pinGradflat800356)"/>
      <defs><linearGradient id="pinGradflat575484" x1="0" y1="0" x2="0" y2="1">
        <stop offset="0" stop-color="#FFFFFF"/><stop offset="1" stop-color="#FFFFFF"/>
      </linearGradient></defs>
      <path d="M 575 647.8
               C 557.36 610.84 501.08 551.2 492.68 502.48
               A 84 84 0 1 1 657.3199999999999 502.48
               C 648.92 551.2 592.64 610.84 575 647.8 Z"
            fill="url(#pinGradflat575484)"/></g></svg>