<svg xmlns="http://www.w3.org/2000/svg" width="1024" height="1024" viewBox="0 0 1024 1024">
    <g transform="translate(204.8 204.8) scale(0.6)">
      <defs><linearGradient id="pinGradflat554201" x1="0" y1="0" x2="0" y2="1">
        <stop offset="0" stop-color="#FFFFFF"/><stop offset="1" stop-color="#FFFFFF"/>
      </linearGradient></defs>
      <path d="M 554 386.25
               C 534.05 344.45 470.4 277.0 460.9 221.9
               A 95 95 0 1 1 647.1 221.9
               C 637.6 277.0 573.95 344.45 554 386.25 Z"
            fill="url(#pinGradflat554201)"/>
      <defs><linearGradient id="pinGradflat340344" x1="0" y1="0" x2="0" y2="1">
        <stop offset="0" stop-color="#FFFFFF"/><stop offset="1" stop-color="#FFFFFF"/>
      </linearGradient></defs>
      <path d="M 340 515.6
               C 321.52 476.88 262.56 414.4 253.76 363.36
               A 88 88 0 1 1 426.24 363.36
               C 417.44 414.4 358.48 476.88 340 515.6 Z"
            fill="url(#pinGradflat340344)"/>
      <defs><linearGradient id="pinGradflat800348" x1="0" y1="0" x2="0" y2="1">
        <stop offset="0" stop-color="#FFFFFF"/><stop offset="1" stop-color="#FFFFFF"/>
      </linearGradient></defs>
      <path d="M 800 519.6
               C 781.52 480.88 722.56 418.4 713.76 367.36
               A 88 88 0 1 1 886.24 367.36
               C 877.44 418.4 818.48 480.88 800 519.6 Z"
            fill="url(#pinGradflat800348)"/>
      <defs><linearGradient id="pinGradflat575476" x1="0" y1="0" x2="0" y2="1">
        <stop offset="0" stop-color="#FFFFFF"/><stop offset="1" stop-color="#FFFFFF"/>
      </linearGradient></defs>
      <path d="M 575 647.6
               C 556.52 608.88 497.56 546.4 488.76 495.36
               A 88 88 0 1 1 661.24 495.36
               C 652.44 546.4 593.48 608.88 575 647.6 Z"
            fill="url(#pinGradflat575476)"/></g></svg>