<svg xmlns="http://www.w3.org/2000/svg" width="1024" height="1024" viewBox="0 0 1024 1024">
    <g transform="translate(0.0 0.0) scale(1.0)"><polygon points="94,518 512,738 512,802 94,582" fill="#767676"/><polygon points="512,738 930,518 930,582 512,802" fill="#8C8C8C"/>
      <defs><clipPath id="mapClip"><rect width="1000" height="1000"/></clipPath></defs>
      <g transform="matrix(0.418 0.22 -0.418 0.22 512 298)" clip-path="url(#mapClip)">
        <rect width="1000" height="1000" fill="#EFEFEF"/>
        <g stroke="#FFFFFF" stroke-width="24" fill="none">
          <path d="M 200 0 L 200 1000"/><path d="M 400 0 L 400 1000"/>
          <path d="M 600 0 L 600 1000"/><path d="M 800 0 L 800 1000"/>
          <path d="M 0 200 L 1000 200"/><path d="M 0 400 L 1000 400"/>
          <path d="M 0 600 L 1000 600"/><path d="M 0 800 L 1000 800"/>
        </g>
        <rect x="618" y="24" width="158" height="152" rx="16" fill="#D8D8D8"/>
        <rect x="24" y="418" width="152" height="158" rx="16" fill="#D8D8D8"/>
        <rect x="818" y="424" width="158" height="146" rx="16" fill="#D8D8D8"/>
        <g stroke="#C6C6C6" stroke-width="46" fill="none">
          <path d="M 500 0 L 500 1000"/>
          <path d="M 0 300 L 1000 300"/>
        </g>
        <path d="M 0 810 Q 250 756 500 822 T 1000 806 L 1000 1000 L 0 1000 Z"
              fill="#BDBDBD"/>
      </g><ellipse cx="566.6" cy="387.3" rx="52.199999999999996" ry="15.3" fill="#1B2B4A" opacity="0.20"/><ellipse cx="351.76" cy="517.4799999999999" rx="48.72" ry="14.280000000000001" fill="#1B2B4A" opacity="0.20"/><ellipse cx="811.76" cy="521.4799999999999" rx="48.72" ry="14.280000000000001" fill="#1B2B4A" opacity="0.20"/><ellipse cx="586.76" cy="649.4799999999999" rx="48.72" ry="14.280000000000001" fill="#1B2B4A" opacity="0.20"/>
      <defs><linearGradient id="pinGradgray554210" x1="0" y1="0" x2="0" y2="1">
        <stop offset="0" stop-color="#8A8A8A"/><stop offset="1" stop-color="#6E6E6E"/>
      </linearGradient></defs>
      <path d="M 554 385.5
               C 535.1 345.9 474.8 282.0 465.8 229.8
               A 90 90 0 1 1 642.2 229.8
               C 633.2 282.0 572.9 345.9 554 385.5 Z"
            fill="url(#pinGradgray554210)"/>
      <defs>
        <radialGradient id="ballGrad554210" cx="0.35" cy="0.3" r="1">
          <stop offset="0" stop-color="#C2C2C2"/><stop offset="1" stop-color="#9A9A9A"/>
        </radialGradient>
        <clipPath id="ballClip554210"><circle cx="554" cy="210" r="64.8"/></clipPath>
      </defs>
      <circle cx="554" cy="210" r="64.8" fill="url(#ballGrad554210)"/>
      <g stroke="#6E6E6E" stroke-width="10" fill="none" clip-path="url(#ballClip554210)">
        <path d="M 554 145.2 L 554 274.8"/>
        <path d="M 489.2 210 L 618.8 210"/>
        <path d="M 513.176 162.696 Q 554 210 513.176 257.304"/>
        <path d="M 594.824 162.696 Q 554 210 594.824 257.304"/>
      </g>
      
      <defs><clipPath id="discClip554210"><circle cx="554" cy="210" r="64.8"/></clipPath></defs>
      <ellipse cx="533.264" cy="177.6" rx="33.696" ry="19.439999999999998"
               fill="#FFFFFF" opacity="0.13" clip-path="url(#discClip554210)"/>
      <defs><linearGradient id="pinGradgray340352" x1="0" y1="0" x2="0" y2="1">
        <stop offset="0" stop-color="#8A8A8A"/><stop offset="1" stop-color="#6E6E6E"/>
      </linearGradient></defs>
      <path d="M 340 515.8
               C 322.36 478.84000000000003 266.08 419.2 257.68 370.48
               A 84 84 0 1 1 422.32 370.48
               C 413.92 419.2 357.64 478.84000000000003 340 515.8 Z"
            fill="url(#pinGradgray340352)"/>
      <defs><radialGradient id="yog340352" cx="0.35" cy="0.3" r="1">
        <stop offset="0" stop-color="#ABABAB"/><stop offset="1" stop-color="#858585"/>
      </radialGradient></defs>
      <circle cx="340" cy="352" r="60.48" fill="url(#yog340352)"/>
      <!-- flat-illustration lotus: hair bun, face, tank top, skin arms to knees, crossed dark legs -->
      <g>
        <!-- crossed legs (behind torso), shins overlapping -->
        <path d="M 302.5024 373.7728 Q 323.0656 360.4672 344.8384 377.4016"
              stroke="#6A6A6A" stroke-width="10.886399999999998" fill="none" stroke-linecap="round"/>
        <path d="M 377.4976 373.7728 Q 356.9344 360.4672 335.1616 377.4016"
              stroke="#6A6A6A" stroke-width="10.886399999999998" fill="none" stroke-linecap="round"/>
        <!-- feet peeking at center -->
        <circle cx="330.3232" cy="380.4256" r="4.536" fill="#D2D2D2"/>
        <circle cx="349.6768" cy="380.4256" r="4.536" fill="#D2D2D2"/>
        <!-- arms resting out to the knees -->
        <path d="M 331.5328 341.1136 Q 314.5984 349.5808 310.9696 368.9344"
              stroke="#D2D2D2" stroke-width="6.6528" fill="none" stroke-linecap="round"/>
        <path d="M 348.4672 341.1136 Q 365.4016 349.5808 369.0304 368.9344"
              stroke="#D2D2D2" stroke-width="6.6528" fill="none" stroke-linecap="round"/>
        <!-- tank-top torso, slight waist -->
        <path d="M 332.1376 331.4368
                 C 327.904 343.5328 326.6944 353.2096 328.5088 370.144
                 L 351.4912 370.144
                 C 353.3056 353.2096 352.096 343.5328 347.8624 331.4368
                 Q 340 326.5984 332.1376 331.4368 Z"
              fill="#9E9E9E"/>
        <!-- head: hair behind, face, top-knot bun -->
        <circle cx="340" cy="320.5504" r="11.188799999999999" fill="#6A6A6A"/>
        <circle cx="340" cy="306.03520000000003" r="5.1408000000000005" fill="#6A6A6A"/>
        <circle cx="340" cy="322.3648" r="9.3744" fill="#D2D2D2"/>
      </g>
      
      <defs><clipPath id="discClip340352"><circle cx="340" cy="352" r="60.48"/></clipPath></defs>
      <ellipse cx="320.64639999999997" cy="321.76" rx="31.4496" ry="18.144"
               fill="#FFFFFF" opacity="0.13" clip-path="url(#discClip340352)"/>
      <defs><linearGradient id="pinGradgray800356" x1="0" y1="0" x2="0" y2="1">
        <stop offset="0" stop-color="#8A8A8A"/><stop offset="1" stop-color="#6E6E6E"/>
      </linearGradient></defs>
      <path d="M 800 519.8
               C 782.36 482.84000000000003 726.08 423.2 717.6800000000001 374.48
               A 84 84 0 1 1 882.3199999999999 374.48
               C 873.92 423.2 817.64 482.84000000000003 800 519.8 Z"
            fill="url(#pinGradgray800356)"/>
      <defs><clipPath id="swmClip800356"><circle cx="800" cy="356" r="60.48"/></clipPath></defs>
      <circle cx="800" cy="356" r="60.48" fill="#DCDCDC"/>
      <g clip-path="url(#swmClip800356)">
        <!-- back/shoulder mass connecting arm base to head above the water -->
        <ellipse cx="806.048" cy="368.096" rx="15.7248" ry="9.6768" fill="#D2D2D2"/>
        <!-- head with cap + goggles -->
        <circle cx="818.144" cy="352.976" r="12.096" fill="#D2D2D2"/>
        <path d="M 806.048 351.1616 A 12.096 12.096 0 0 1 830.24 351.1616 Z"
              fill="#8F8F8F"/>
        <circle cx="826.6112" cy="352.3712" r="3.3264" fill="#C4C4C4"/>
        <!-- recovery arm: short arched stroke, hand about to enter the water -->
        <path d="M 801.2096 363.2576 Q 780.6464 330.5984 767.3408 362.048"
              stroke="#D2D2D2" stroke-width="9.6768" fill="none" stroke-linecap="round"/>
        <!-- wavy water bands on top -->
        <path d="M 733.472 368.7008 q 16.3296 -9.6768 33.264 0 t 33.264 0 t 33.264 0 t 33.264 0 L 866.528 428.576 L 733.472 428.576 Z"
              fill="#9A9A9A"/>
        <path d="M 733.472 387.4496 q 16.3296 -9.6768 33.264 0 t 33.264 0 t 33.264 0 t 33.264 0" stroke="#B8B8B8" stroke-width="6.048"
              fill="none" stroke-linecap="round"/>
      </g>
      
      <defs><clipPath id="discClip800356"><circle cx="800" cy="356" r="60.48"/></clipPath></defs>
      <ellipse cx="780.6464" cy="325.76" rx="31.4496" ry="18.144"
               fill="#FFFFFF" opacity="0.13" clip-path="url(#discClip800356)"/>
      <defs><linearGradient id="pinGradgray575484" x1="0" y1="0" x2="0" y2="1">
        <stop offset="0" stop-color="#8A8A8A"/><stop offset="1" stop-color="#6E6E6E"/>
      </linearGradient></defs>
      <path d="M 575 647.8
               C 557.36 610.84 501.08 551.2 492.68 502.48
               A 84 84 0 1 1 657.3199999999999 502.48
               C 648.92 551.2 592.64 610.84 575 647.8 Z"
            fill="url(#pinGradgray575484)"/>
      <defs><radialGradient id="pkl575484" cx="0.35" cy="0.3" r="1">
        <stop offset="0" stop-color="#CCCCCC"/><stop offset="1" stop-color="#A6A6A6"/>
      </radialGradient></defs>
      <circle cx="575" cy="484" r="60.48" fill="url(#pkl575484)"/><circle cx="575" cy="484" r="6.9552" fill="#7d7d7d"/><circle cx="575.0" cy="452.5504" r="6.9552" fill="#7d7d7d"/><circle cx="602.2361525388591" cy="468.2752" r="6.9552" fill="#7d7d7d"/><circle cx="602.2361525388591" cy="499.7248" r="6.9552" fill="#7d7d7d"/><circle cx="575.0" cy="515.4496" r="6.9552" fill="#7d7d7d"/><circle cx="547.7638474611409" cy="499.7248" r="6.9552" fill="#7d7d7d"/><circle cx="547.7638474611409" cy="468.2752" r="6.9552" fill="#7d7d7d"/>
      <defs><clipPath id="discClip575484"><circle cx="575" cy="484" r="60.48"/></clipPath></defs>
      <ellipse cx="555.6464" cy="453.76" rx="31.4496" ry="18.144"
               fill="#FFFFFF" opacity="0.13" clip-path="url(#discClip575484)"/></g></svg>